<svg xmlns="http://www.w3.org/2000/svg" xmlns:xlink="http://www.w3.org/1999/xlink" width="110.313" height="110.312" viewBox="0 0 110.313 110.312"><defs><style>.a{fill:url(#a);}</style><linearGradient id="a" x1="0.947" y1="1.044" x2="0.072" y2="0.168" gradientUnits="objectBoundingBox"><stop offset="0" stop-color="#e89968"/><stop offset="1" stop-color="#f4d844"/></linearGradient></defs><path class="a" d="M115.063,82.171v3.1a1.629,1.629,0,1,1-3.258,0v-3.1a1.629,1.629,0,0,1,3.258,0Zm0-15.515v8.765a1.629,1.629,0,1,1-3.258,0V68.285H8.008V111.8h39.1V93.419a1.629,1.629,0,0,1,3.258,0V111.8H69.448V81.86H50.365V85.2a1.629,1.629,0,1,1-3.258,0V80.231A1.629,1.629,0,0,1,48.735,78.6H71.077a1.629,1.629,0,0,1,1.629,1.629V111.8h39.1V91.4a1.629,1.629,0,1,1,3.258,0v22.031a1.629,1.629,0,0,1-1.629,1.629H6.379a1.629,1.629,0,0,1-1.629-1.629V66.655a1.629,1.629,0,0,1,1.629-1.629H7.505v-18.9a1.633,1.633,0,0,1,.429-1.1l9.732-10.587V18.981a1.629,1.629,0,0,1,2.426-1.421l9.569,5.368a1.629,1.629,0,0,1,0,2.842l-8.737,4.906v3.759l3.235,3.519a1.629,1.629,0,1,1-2.4,2.2L19.3,37.478l-8.535,9.286V65.026H27.827V46.764l-1.663-1.811a1.629,1.629,0,0,1,2.4-2.2l2.092,2.279a1.631,1.631,0,0,1,.429,1.1v18.9h3.807v-16.6A1.629,1.629,0,0,1,36.522,46.8h11.59V33.524a1.629,1.629,0,0,1,.43-1.1l9.735-10.59V6.379A1.629,1.629,0,0,1,60.7,4.959l9.569,5.368a1.629,1.629,0,0,1,0,2.842l-8.737,4.9v3.762l9.735,10.59a1.629,1.629,0,0,1,.43,1.1V46.8h11.59a1.629,1.629,0,0,1,1.629,1.629v16.6h3.807v-18.9a1.631,1.631,0,0,1,.429-1.1l9.732-10.6V18.977a1.629,1.629,0,0,1,2.426-1.421l9.569,5.368a1.629,1.629,0,0,1,0,2.842l-8.737,4.91v3.768l9.732,10.587a1.633,1.633,0,0,1,.429,1.1V65.026h1.126A1.629,1.629,0,0,1,115.063,66.655ZM25.534,24.346l-4.61-2.587v5.173Zm81.222,0-4.61-2.587v5.173ZM91.985,65.026h17.064V46.764l-8.535-9.286-8.528,9.286ZM66.143,11.748,61.535,9.161v5.174ZM51.37,46.8H68.443V34.159l-8.536-9.287L51.37,34.159ZM38.151,65.026H81.662V50.057H38.151Zm-4.194,30.1a1.629,1.629,0,0,1-1.629,1.629H21.157a1.629,1.629,0,0,1-1.629-1.629V80.231A1.629,1.629,0,0,1,21.157,78.6H32.328a1.629,1.629,0,0,1,1.629,1.629ZM30.7,81.86H22.786V93.5H30.7Zm69.585,13.265a1.629,1.629,0,0,1-1.629,1.629H87.485a1.629,1.629,0,0,1-1.629-1.629V80.231A1.629,1.629,0,0,1,87.485,78.6H98.655a1.629,1.629,0,0,1,1.629,1.629ZM97.026,81.86H89.114V93.5h7.913Zm-64.7,17.4H21.157a1.629,1.629,0,0,0,0,3.258H32.328a1.629,1.629,0,1,0,0-3.258Zm66.327,0H87.485a1.629,1.629,0,0,0,0,3.258H98.655a1.629,1.629,0,1,0,0-3.258ZM22.088,50.132a1.629,1.629,0,0,1,1.629,1.629v5.585a1.629,1.629,0,0,1-1.629,1.629H16.5a1.629,1.629,0,0,1-1.629-1.629V51.761A1.629,1.629,0,0,1,16.5,50.132ZM20.459,53.39H18.132v2.327h2.327Zm84.48-1.629v5.585a1.629,1.629,0,0,1-1.629,1.629H97.725A1.629,1.629,0,0,1,96.1,57.346V51.761a1.629,1.629,0,0,1,1.629-1.629h5.585a1.629,1.629,0,0,1,1.629,1.628Zm-3.258,1.629H99.354v2.327h2.327ZM64.328,35.505v5.585A1.629,1.629,0,0,1,62.7,42.72H57.114a1.629,1.629,0,0,1-1.629-1.629V35.505a1.629,1.629,0,0,1,1.629-1.629H62.7a1.629,1.629,0,0,1,1.629,1.629ZM61.07,37.134H58.743v2.327H61.07ZM53.157,54.553v5.585a1.629,1.629,0,0,1-1.629,1.63H45.943a1.629,1.629,0,0,1-1.629-1.629V54.554a1.629,1.629,0,0,1,1.629-1.629h5.585a1.629,1.629,0,0,1,1.629,1.628ZM49.9,56.183H47.572V58.51H49.9Zm14.429-1.629v5.585A1.629,1.629,0,0,1,62.7,61.768H57.114a1.629,1.629,0,0,1-1.629-1.629V54.554a1.629,1.629,0,0,1,1.629-1.629H62.7a1.629,1.629,0,0,1,1.629,1.628ZM61.07,56.183H58.743V58.51H61.07ZM75.5,54.554v5.585a1.629,1.629,0,0,1-1.629,1.629H68.285a1.629,1.629,0,0,1-1.629-1.629V54.554a1.629,1.629,0,0,1,1.629-1.629H73.87A1.629,1.629,0,0,1,75.5,54.553Zm-3.258,1.629H69.914V58.51h2.327Z" transform="translate(-4.75 -4.75)"/></svg>