<svg xmlns="http://www.w3.org/2000/svg" xmlns:xlink="http://www.w3.org/1999/xlink" width="110.315" height="110.312" viewBox="0 0 110.315 110.312"><defs><style>.a{fill:url(#a);}</style><linearGradient id="a" x1="0.946" y1="0.897" x2="0.087" y2="0.038" gradientUnits="objectBoundingBox"><stop offset="0" stop-color="#e89968"/><stop offset="1" stop-color="#f4d844"/></linearGradient></defs><path class="a" d="M104.294,46.991A1.624,1.624,0,0,1,106,48.536c.039.784.06,1.575.06,2.369a1.629,1.629,0,1,1-3.258,0q0-1.111-.055-2.206a1.627,1.627,0,0,1,1.544-1.708ZM87.048,20.773a1.629,1.629,0,1,0-2.181,2.42,37.413,37.413,0,0,1,8.155,10.525,1.629,1.629,0,0,0,2.886-1.506A40.651,40.651,0,0,0,87.048,20.773Zm11.544,92.663a1.63,1.63,0,0,1-1.629,1.629H22.849a1.629,1.629,0,1,1,0-3.258h4.088v-9.542a1.63,1.63,0,0,1,1.629-1.629H35.8L39.241,92.2a46.168,46.168,0,1,1,65.9-50.543,1.629,1.629,0,1,1-3.192.652A42.9,42.9,0,1,0,41.807,89.818H78A43.249,43.249,0,0,0,102.407,56.77a1.629,1.629,0,1,1,3.228.441A45.9,45.9,0,0,1,80.559,92.184l3.459,8.452h7.234a1.63,1.63,0,0,1,1.629,1.629v9.542H96.97a1.63,1.63,0,0,1,1.625,1.629Zm-8.975-1.629v-7.913H57.657a1.629,1.629,0,0,1,0-3.258H80.494l-3.085-7.559h-35l-3.09,7.559h9.415a1.629,1.629,0,1,1,0,3.258H30.2v7.913ZM36.324,44.159a1.629,1.629,0,0,0,1.629-1.629V40.435h2.095a1.629,1.629,0,0,0,0-3.258H37.953V35.083a1.629,1.629,0,0,0-3.258,0v2.095H32.6a1.629,1.629,0,1,0,0,3.258H34.7V42.53a1.628,1.628,0,0,0,1.629,1.629Zm69.664,39.72h-2.095V81.785a1.629,1.629,0,1,0-3.258,0v2.095H98.541a1.629,1.629,0,0,0,0,3.258h2.095v2.095a1.629,1.629,0,1,0,3.258,0V87.137h2.095a1.629,1.629,0,1,0,0-3.258Zm7.447-73.466h-2.095V8.318a1.629,1.629,0,1,0-3.258,0v2.095h-2.095a1.629,1.629,0,0,0,0,3.258h2.095v2.095a1.629,1.629,0,0,0,3.258,0V13.671h2.095a1.629,1.629,0,1,0,0-3.258ZM13.827,20.755a1.629,1.629,0,1,0,0-3.258H11.732V15.4a1.629,1.629,0,0,0-3.258,0V17.5H6.379a1.629,1.629,0,1,0,0,3.258H8.474v2.095a1.629,1.629,0,0,0,3.258,0V20.755ZM78.636,55.839a5.353,5.353,0,1,1-5.353,5.353,5.353,5.353,0,0,1,5.353-5.353Zm0,3.258a2.095,2.095,0,1,0,2.095,2.095A2.095,2.095,0,0,0,78.636,59.1ZM17.55,93.072A5.353,5.353,0,1,1,22.9,87.719,5.353,5.353,0,0,1,17.55,93.072Zm2.095-5.353a2.095,2.095,0,1,0-2.095,2.095,2.095,2.095,0,0,0,2.095-2.095Z" transform="translate(-4.75 -4.753)"/></svg>