<svg xmlns="http://www.w3.org/2000/svg" xmlns:xlink="http://www.w3.org/1999/xlink" width="107.935" height="107.922" viewBox="0 0 107.935 107.922"><defs><style>.a{fill:url(#a);}</style><linearGradient id="a" x1="0.726" y1="0.829" x2="0.083" y2="0.186" gradientUnits="objectBoundingBox"><stop offset="0" stop-color="#e89968"/><stop offset="1" stop-color="#f4d844"/></linearGradient></defs><path class="a" d="M90.283,80.867a46.5,46.5,0,0,1-2.065,6.212c-5.026,11.925-21.4,17.36-34.762,17.439-5.639,5.33-12.065,8.158-18.447,8.159a21.547,21.547,0,0,1-3.359-.263c-9.933-1.57-19.173-10.005-26.719-24.394a1.594,1.594,0,0,1,1.958-2.24c9.034,3.267,22.052,4.275,33.441-8.916A58.123,58.123,0,0,1,27.648,63.11a1.594,1.594,0,0,1,2.681-1.726A56.174,56.174,0,0,0,43.57,75.36c.01.007.021.012.03.019l.016.016q2.459,1.9,5.254,3.734a1.594,1.594,0,1,1-1.75,2.664q-2.238-1.469-4.269-2.979C31.431,92.134,18.317,92.113,9.644,89.951,16.3,101.33,24.034,107.985,32.15,109.265c6.756,1.067,12.478-1.681,16.668-4.943A29.247,29.247,0,0,1,38.563,101.7,1.594,1.594,0,0,1,40,98.855c3.075,1.555,7.627,2.435,12.818,2.479,12.442.1,27.927-4.727,32.465-15.493a43.362,43.362,0,0,0,1.92-5.786,1.594,1.594,0,1,1,3.082.813Zm.962-12.37a1.6,1.6,0,0,0-1.865,1.267L89.2,70.7c-.182.94-.358,1.885-.546,2.829A1.594,1.594,0,0,0,89.908,75.4a1.627,1.627,0,0,0,.309.03,1.6,1.6,0,0,0,1.563-1.287c.182-.95.364-1.9.546-2.849l.178-.933A1.6,1.6,0,0,0,91.245,68.5Zm20.919-21.8c-2.923-2.674-8.344-6.9-13.077-6.534-7.4-8.08-18.034-9.906-27.944-4.736a36.479,36.479,0,0,0-9.86,7.742c-5.888-6.02-12.919-10.134-19.187-13.8l-.685-.4a85.26,85.26,0,0,1,6.68-18.58c2.519,5.346,7.1,10.147,11.9,15.182,1.858,1.948,3.78,3.964,5.64,6.068a1.594,1.594,0,0,0,2.388-2.112c-1.9-2.149-3.843-4.19-5.721-6.156C56.483,17.271,51.466,12.01,49.814,5.931a1.594,1.594,0,0,0-2.966-.292c-3.142,6.322-6.514,13.753-8.327,21.622C32.8,23.833,28,20.539,25.288,16.057a1.594,1.594,0,0,0-2.931.539c-2.739,14.943-3.522,27.372,1.561,39.465a1.594,1.594,0,1,0,2.939-1.235c-4.366-10.392-4.091-21.235-2-34.009,3.9,4.437,9.625,7.788,15.625,11.294C53.1,39.489,67.394,47.854,70.49,69.081a1.594,1.594,0,0,0,1.575,1.366,1.549,1.549,0,0,0,.232-.017,1.594,1.594,0,0,0,1.347-1.807,44.313,44.313,0,0,0-10.2-23.1,33.535,33.535,0,0,1,9.171-7.275c8.794-4.588,18.235-2.809,24.64,4.645a1.6,1.6,0,0,0,1.555.517c1.774-.4,4.443.572,7.412,2.6-9.869.592-13.29,8.439-15.273,16.349a1.594,1.594,0,0,0,1.159,1.934,1.578,1.578,0,0,0,.388.048,1.6,1.6,0,0,0,1.548-1.207c2.425-9.676,6.076-15.343,16.8-13.693a1.594,1.594,0,0,0,1.319-2.751ZM81.716,85.932a1.6,1.6,0,0,0,1.47-.975c1.8-4.281,2.811-9.58,3.786-14.716.224-1.178.455-2.395.707-3.632a1.594,1.594,0,0,0-3.124-.638c-.255,1.251-.489,2.482-.717,3.684-.943,4.961-1.917,10.092-3.59,14.061a1.593,1.593,0,0,0,1.468,2.213Z" transform="translate(-4.748 -4.754)"/></svg>