<svg xmlns="http://www.w3.org/2000/svg" xmlns:xlink="http://www.w3.org/1999/xlink" width="110.967" height="111" viewBox="0 0 110.967 111"><defs><style>.a{fill:url(#a);}</style><linearGradient id="a" x1="0.929" y1="0.911" x2="0.182" y2="0.165" gradientUnits="objectBoundingBox"><stop offset="0" stop-color="#e89968"/><stop offset="1" stop-color="#f4d844"/></linearGradient></defs><path class="a" d="M13.869,49.054a1.684,1.684,0,1,0,0-3.368H11.717V43.533a1.684,1.684,0,0,0-3.368,0v2.152H6.384a1.684,1.684,0,1,0,0,3.368H8.536v2.152a1.684,1.684,0,0,0,3.368,0V49.054Zm89.26,30.408h-2.152V77.31a1.684,1.684,0,0,0-3.368,0v2.152H95.457a1.684,1.684,0,0,0,0,3.368h2.152v2.152a1.684,1.684,0,0,0,3.368,0V82.83h2.152a1.677,1.677,0,0,0,1.684-1.684A1.739,1.739,0,0,0,103.13,79.462Zm10.853-61.94h-2.152V15.371a1.684,1.684,0,0,0-3.368,0v2.152h-2.152a1.684,1.684,0,1,0,0,3.368h2.152v2.152a1.684,1.684,0,0,0,3.368,0V20.891h2.152a1.684,1.684,0,1,0,0-3.368ZM22.664,86.479a1.684,1.684,0,0,0,0-3.368H20.512V80.959a1.684,1.684,0,1,0-3.368,0v2.152H14.992a1.684,1.684,0,0,0,0,3.368h2.152v2.152a1.684,1.684,0,1,0,3.368,0V86.479ZM37.073,63.556a1.67,1.67,0,1,0-3.275.655L36.98,79.275a1.615,1.615,0,1,0,3.181-.561V78.62ZM82.358,85.731a1.613,1.613,0,0,0-1.965,1.216l-1.029,4.117a1.613,1.613,0,0,0,1.216,1.965,1.573,1.573,0,0,0,1.965-1.216L83.575,87.7A1.688,1.688,0,0,0,82.358,85.731ZM64.113,48.586a1.638,1.638,0,1,0-3.275.094l.655,20.584a1.64,1.64,0,0,0,1.591,1.591h.094a1.6,1.6,0,0,0,1.591-1.684ZM97.422,112.4H77.4l3.462-14.128a1.634,1.634,0,0,0-3.181-.749L74.031,112.4H69.072l8.234-69.986,15.906-7.392L81.891,80.772a1.634,1.634,0,1,0,3.181.749S94.148,44.75,97.235,32.493a1.386,1.386,0,0,0-.187-1.216C93.118,24.821,85.259,12,81.423,5.546A1.718,1.718,0,0,0,80.3,4.8a1.4,1.4,0,0,0-1.4.468c-5.988,5.8-17.777,17.4-23.765,23.2a1.335,1.335,0,0,0-.468,1.029S41.845,16.868,37.541,12.657a1.815,1.815,0,0,0-1.5-.468,1.628,1.628,0,0,0-1.216.936c-1.4,2.994-5.427,12.163-5.427,12.163A1.634,1.634,0,0,0,32.4,26.6l3.088-6.83,3.181,23.859L26.875,39.136l2.339-5.146a1.634,1.634,0,1,0-2.994-1.31l-2.994,6.737a1.326,1.326,0,0,0-.094,1.029C26.875,58.41,38.2,112.4,38.2,112.4H22.945a1.684,1.684,0,0,0,0,3.368H97.422a1.677,1.677,0,0,0,1.684-1.684A1.621,1.621,0,0,0,97.422,112.4Zm-37.051,0L58.219,39.229v-.094l-.187-5.707v-.936l16,9.637L65.7,112.3H60.371ZM74.5,38.668,58.967,29.312,77.774,10.786ZM54.851,34.177l.094,3.93L42.032,43.721l-3.368-25.45Zm26.2-22.923L93.305,31.37l-15.438,7.2ZM26.968,42.691,39.225,47.37l5.24,40.139a1.608,1.608,0,0,0,1.591,1.4h.187a1.622,1.622,0,0,0,1.4-1.871l-5.24-39.858,12.631-5.52L57.1,112.3H50.921L48.675,95.368a1.654,1.654,0,1,0-3.275.468L47.552,112.3H41.471Z" transform="translate(-4.7 -4.765)"/></svg>