<svg xmlns="http://www.w3.org/2000/svg" xmlns:xlink="http://www.w3.org/1999/xlink" width="107.902" height="107.923" viewBox="0 0 107.902 107.923"><defs><style>.a{fill:url(#a);}</style><linearGradient id="a" x1="0.711" y1="0.702" x2="0.298" y2="0.29" gradientUnits="objectBoundingBox"><stop offset="0" stop-color="#e89968"/><stop offset="1" stop-color="#f4d844"/></linearGradient></defs><path class="a" d="M105.292,53.206A56.6,56.6,0,0,1,95.275,66.647C80.8,81.118,61.156,86.063,47.947,78.759l-27.8,31.513a7.079,7.079,0,0,1-5.072,2.385h-.217a7.083,7.083,0,0,1-4.994-2.067l-3.042-3.043a7.058,7.058,0,0,1,.32-10.283l12.49-11.019a1.594,1.594,0,0,1,2.105,2.393L9.243,99.657a3.872,3.872,0,0,0-.176,5.639l3.043,3.043a3.87,3.87,0,0,0,5.639-.176l28.682-32.5a1.6,1.6,0,0,1,2.043-.3c11.952,7.507,30.689,2.892,44.552-10.971a53.473,53.473,0,0,0,9.453-12.684,1.594,1.594,0,1,1,2.814,1.5Zm4.69-45.8a9.78,9.78,0,0,0-7.028-2.67,17.823,17.823,0,0,0-9.7,3.242C80.238,3.995,63.289,9.61,50.763,22.132,36.294,36.6,31.347,56.246,38.655,69.46L25.344,81.2a1.594,1.594,0,1,0,2.11,2.391l14.3-12.615a1.6,1.6,0,0,0,.3-2.043C34.54,56.985,39.154,38.248,53.017,24.385c11.93-11.93,28-17.211,39.978-13.136a1.592,1.592,0,0,0,1.447-.218,14.978,14.978,0,0,1,8.513-3.1,6.671,6.671,0,0,1,4.774,1.737c1.467,1.468,2.033,3.785,1.591,6.522a16.039,16.039,0,0,1-2.949,6.752,1.593,1.593,0,0,0-.218,1.451,28.155,28.155,0,0,1,1.159,12.246,1.594,1.594,0,1,0,3.168.35,31.615,31.615,0,0,0-1.06-12.849,18.916,18.916,0,0,0,3.045-7.442c.607-3.776-.273-7.073-2.483-9.284Zm-1.927,34.31a1.593,1.593,0,0,0-1.968,1.093c-.291,1.026-.627,2.058-1,3.066a1.594,1.594,0,1,0,2.992,1.1c.4-1.083.758-2.191,1.071-3.295a1.594,1.594,0,0,0-1.1-1.963ZM54.577,28.3a1.593,1.593,0,0,0-2.249.138C39.407,43.052,36.9,61.31,46.5,70.907c4.713,4.713,10.837,5.7,15.145,5.7,9.982,0,21.111-5.17,29.771-13.829,7.244-7.244,12.009-16.037,13.415-24.757,1.331-8.257-.546-15.416-5.287-20.158-4.714-4.713-10.837-5.7-15.146-5.7-8.475,0-17.922,3.766-25.917,10.334a1.594,1.594,0,1,0,2.023,2.463c7.433-6.1,16.139-9.6,23.891-9.6,3.705,0,8.951.827,12.892,4.768,4,4,5.56,10.177,4.395,17.393-1.3,8.064-5.747,16.236-12.522,23.007-8.075,8.078-18.362,12.9-27.517,12.9-3.706,0-8.951-.827-12.892-4.768C40.5,60.4,43.119,43.664,54.715,30.551a1.594,1.594,0,0,0-.138-2.249ZM17.131,100.546a1.594,1.594,0,0,0,2.253,0l5.464-5.464a1.594,1.594,0,1,0-2.253-2.254l-5.464,5.464a1.593,1.593,0,0,0,0,2.254Zm67.9-64.408L60.35,40.782a1.594,1.594,0,0,0,.292,3.16,1.565,1.565,0,0,0,.3-.028L85.625,39.27a1.593,1.593,0,1,0-.589-3.132Zm0,8.728L60.351,49.507a1.594,1.594,0,0,0,.292,3.16,1.565,1.565,0,0,0,.3-.028l24.688-4.644a1.594,1.594,0,1,0-.589-3.133Z" transform="translate(-4.75 -4.735)"/></svg>