<svg xmlns="http://www.w3.org/2000/svg" xmlns:xlink="http://www.w3.org/1999/xlink" width="123" height="111.123" viewBox="0 0 123 111.123"><defs><style>.a{fill:url(#a);}</style><linearGradient id="a" x1="0.626" y1="0.76" x2="0.24" y2="0.374" gradientUnits="objectBoundingBox"><stop offset="0" stop-color="#e89968"/><stop offset="1" stop-color="#f4d844"/></linearGradient></defs><path class="a" d="M30.032,97.008a1.53,1.53,0,0,1,0,2.32l-2.941,2.657a1.956,1.956,0,0,1-2.569,0,1.531,1.531,0,0,1,0-2.321l2.942-2.656a1.954,1.954,0,0,1,2.568,0ZM90.879,27.781h.082a1.716,1.716,0,0,0,1.733-1.713A14.328,14.328,0,0,0,88.781,17.3a1.949,1.949,0,0,0-2.548-.3,1.538,1.538,0,0,0-.327,2.3,11.4,11.4,0,0,1,3.16,6.9,1.745,1.745,0,0,0,1.813,1.566Zm36.814,17.481a1.735,1.735,0,0,1-1.268,1.167l-4.107,1.039a21.334,21.334,0,0,0-8.526,4.378c-8.346,7.065-14.678,10.128-21.02,10.128q-.3,0-.592-.008c-4.659-.139-9.267-1.969-14.392-5.777L58.41,73.691a25.879,25.879,0,0,1,13.2,1.466A1.59,1.59,0,0,1,72.6,77.3a1.89,1.89,0,0,1-2.372.892,20.71,20.71,0,0,0-15.892.094c4.377,2.188,13.464,4.89,16.5,4.345a1.817,1.817,0,0,1,2.132,1.3,1.657,1.657,0,0,1-1.433,1.926,8.57,8.57,0,0,1-1.473.112c-3.912,0-10.528-1.821-15.3-3.845,3.8,5.876,10.04,6.771,13.851,6.695,6.294-.131,12.132-2.884,14.68-5.8a26.357,26.357,0,0,1-5.942-1.643,1.585,1.585,0,0,1-.943-2.16,1.9,1.9,0,0,1,2.39-.851c4.308,1.688,6.357,1.525,6.67,1.385a2.034,2.034,0,0,1,1.951.182,1.556,1.556,0,0,1,.665,1.638C86.68,87.087,77.8,91.907,68.694,92.1c-.191,0-.381.006-.569.006-8.394,0-14.776-3.954-17.936-10.987L34.877,94.951a1.946,1.946,0,0,1-1.773.46,1.738,1.738,0,0,1-1.3-1.178,1.54,1.54,0,0,1,.509-1.6L75.057,54.01q-.917-.776-1.858-1.632L8.764,110.59a1.093,1.093,0,0,0,0,1.656,1.4,1.4,0,0,0,1.833,0l9.342-8.44a1.956,1.956,0,0,1,2.568,0,1.531,1.531,0,0,1,0,2.32l-9.342,8.44a5.308,5.308,0,0,1-6.969,0,4.155,4.155,0,0,1,0-6.3L34.912,82.326c-7.958-2.919-12.36-8.881-12.153-16.717.208-8.227,5.548-16.248,11.654-17.514a1.924,1.924,0,0,1,1.848.6,1.512,1.512,0,0,1,.162,1.769c-.3.563-.076,3.81,3.333,9.265,3.226,5.162,4.347,10.293,3.391,15.16L70.774,49.927c-4.921-6.189-6.752-11.253-5.907-16.317a1.8,1.8,0,0,1,2.067-1.378A1.673,1.673,0,0,1,68.459,34.1C67.81,38,69.2,42.032,72.944,47c7.735-7.3,14.777-12.091,21.281-14.449,3.512-9.136-1.5-15.4-7.5-20.794L84.277,9.54l-.311,1.008a21.731,21.731,0,0,1-5.685,9.065,53.669,53.669,0,0,0-6.61,7.408,1.936,1.936,0,0,1-2.509.5,1.55,1.55,0,0,1-.553-2.267,56.927,56.927,0,0,1,7.02-7.891,18.478,18.478,0,0,0,4.838-7.705l1.152-3.713A1.744,1.744,0,0,1,82.91,4.8a1.952,1.952,0,0,1,1.745.43s2.148,1.952,4.639,4.2q.607.547,1.207,1.112l1.388-2.752a1.8,1.8,0,0,1,1.337-.933,1.943,1.943,0,0,1,1.61.464s1.509,1.383,3.263,2.948a16.15,16.15,0,0,1,5.462,8.65,17.964,17.964,0,0,1,8.512,7.689,18.771,18.771,0,0,1,9.563,4.927c1.742,1.594,3.269,2.952,3.272,2.955a1.544,1.544,0,0,1,.515,1.454,1.677,1.677,0,0,1-1.034,1.208l-3.052,1.251c.423.365.84.728,1.236,1.087,2.48,2.251,4.64,4.192,4.642,4.193a1.536,1.536,0,0,1,.479,1.577ZM113.479,30.341a12.3,12.3,0,0,1,.311,2.945,31.577,31.577,0,0,1,4.567,2.767c.22-.094.436-.207.656-.3l1.472-.607c-.437-.4-.925-.839-1.429-1.3a16.361,16.361,0,0,0-5.577-3.506ZM93.116,13.21a28.929,28.929,0,0,1,3.153,4.152,16.575,16.575,0,0,1,3.158.281A14.786,14.786,0,0,0,95.535,12.6c-.507-.452-.993-.89-1.43-1.285l-.665,1.32c-.1.2-.218.382-.323.576Zm5.305,18.144a25.013,25.013,0,0,1,4.644-.546h.394a22.487,22.487,0,0,1,6.629,1.007c-.982-5.672-5.87-10.14-12.136-11.1a16.778,16.778,0,0,1,.469,10.634ZM33.8,78.2c-2.548-4.916-4.809-12-4.125-15.153A1.817,1.817,0,0,1,31.8,61.751a1.656,1.656,0,0,1,1.433,1.926c-.6,2.744,2.387,10.956,4.82,14.91,2.833-5.36,2.346-11.15-1.464-17.245a26.287,26.287,0,0,1-3.782-8.917c-3.228,2.3-6.275,7.575-6.421,13.262A13.169,13.169,0,0,0,33.8,78.2Zm88.653-34.171c-.72-.656-1.564-1.415-2.448-2.218-.948-.856-1.984-1.741-3.1-2.6-.033-.027-.07-.049-.1-.079-3.64-2.762-8.179-5.158-13.664-5.044-7.953.137-17.089,5.2-27.9,15.484q1.85,1.719,3.571,3.095a1.838,1.838,0,0,1,.166.123c.008.008.012.016.021.023,4.925,3.9,9.161,5.744,13.313,5.867,5.4.13,11.276-2.687,19.008-9.231a25.117,25.117,0,0,1,10.031-5.144ZM104.137,47.7c-4.728,3.61-8.453,5.366-11.391,5.366a1.65,1.65,0,1,0,0,3.282c3.885,0,8.25-1.952,13.737-6.14a1.533,1.533,0,0,0,.184-2.29,1.955,1.955,0,0,0-2.53-.218Z" transform="translate(-4.752 -4.748)"/></svg>