<svg xmlns="http://www.w3.org/2000/svg" xmlns:xlink="http://www.w3.org/1999/xlink" width="110.3" height="110.312" viewBox="0 0 110.3 110.312"><defs><style>.a{fill:url(#a);}</style><linearGradient id="a" x1="0.926" y1="0.937" x2="0.173" y2="0.184" gradientUnits="objectBoundingBox"><stop offset="0" stop-color="#e89968"/><stop offset="1" stop-color="#f4d844"/></linearGradient></defs><path class="a" d="M115.05,69.363v3.7a1.629,1.629,0,1,1-3.258,0v-3.7a1.629,1.629,0,0,1,3.258,0Zm0-24.589V62.826a1.629,1.629,0,0,1-3.258,0V46.4H81.254a1.614,1.614,0,0,1-2.172,1.1l-2.751-1.1H73.862l-.533,4.528a1.628,1.628,0,0,1-2.22,1.323L65.989,50.22l-.632,5.465a1.63,1.63,0,0,1-2.217,1.33l-5.115-2.048-.63,5.47a1.629,1.629,0,0,1-2.222,1.326l-5.119-2.041L49.415,65.2a1.628,1.628,0,0,1-2.221,1.325l-5.119-2.042-.639,5.465a1.632,1.632,0,0,1-.783,1.21L36.744,73.49a1.628,1.628,0,0,1-2.159-.45L32.1,69.564a1.62,1.62,0,0,1-1.2-.114l-5.265-2.766-5.265,2.766a1.629,1.629,0,0,1-2.359-1.718l1.009-5.858-4.254-4.149a1.629,1.629,0,0,1,.9-2.778l5.879-.854,2.628-5.336a1.629,1.629,0,0,1,1.46-.909h0a1.631,1.631,0,0,1,1.461.907l2.636,5.339,4.53.659L44.7,46.4H8.008V83.319H10.7l1-1.969L9.385,77.086A1.63,1.63,0,0,1,11.074,74.7l4.786.76,3.346-3.52A1.629,1.629,0,0,1,22,72.806l.76,4.8,4.375,2.088a1.628,1.628,0,0,1,.039,2.92l-1.388.709h31.9l-.084-.291L53,81.483a1.628,1.628,0,0,1-.393-2.895l4.028-2.714.047-4.849a1.629,1.629,0,0,1,2.632-1.267l3.823,2.991L67.762,71.3a1.629,1.629,0,0,1,2.017,2.112l-1.661,4.561,2.809,3.956a1.619,1.619,0,0,1,.226,1.39h40.639V79.912a1.629,1.629,0,0,1,3.258,0v5.036a1.629,1.629,0,0,1-1.629,1.629H101.376V102.15a7.214,7.214,0,1,1-8.843,0V99.515H27.266v2.632a7.214,7.214,0,1,1-8.843,0V86.577H6.379A1.629,1.629,0,0,1,4.75,84.948V44.774a1.629,1.629,0,0,1,1.629-1.629h42.4L77.017,20.554,74.993,17.77a1.628,1.628,0,0,1,.474-2.352L81.122,12a1.629,1.629,0,1,1,1.687,2.788l-4.139,2.5L92.576,36.406l12.845-7.658A3.029,3.029,0,0,0,106.47,24.6L97.456,9.484a3.027,3.027,0,0,0-4.168-1.039l-4.46,2.7a1.629,1.629,0,1,1-1.687-2.788l4.46-2.7a6.286,6.286,0,0,1,8.649,2.158l9.014,15.116a6.29,6.29,0,0,1-2.178,8.615l-13.4,7.988c-.007,0-.012.01-.02.014L88.5,42.627a1.626,1.626,0,0,1-1.435.114l-5.119-2.036-.282,2.44h31.761A1.629,1.629,0,0,1,115.05,44.774ZM26.8,107.836a3.956,3.956,0,1,0-3.956,3.956A3.956,3.956,0,0,0,26.8,107.836Zm-2.792-7.111V86.577H21.683v14.148a6.632,6.632,0,0,1,2.327,0Zm68.526-4.468V93.93H42.68a1.629,1.629,0,1,1,0-3.258H92.534v-4.1H27.266v4.1h6.8a1.629,1.629,0,0,1,0,3.258h-6.8v2.327Zm8.377,11.579a3.956,3.956,0,1,0-3.956,3.956,3.956,3.956,0,0,0,3.956-3.956ZM98.12,86.577H95.793v14.148a6.632,6.632,0,0,1,2.327,0ZM61.075,83.319h.316L62.6,81.7a1.639,1.639,0,0,1,1.365-.657l2.4.087-1.4-1.965a1.628,1.628,0,0,1-.2-1.5l.826-2.266-2.3.72a1.635,1.635,0,0,1-1.489-.272l-1.9-1.483-.024,2.4a1.626,1.626,0,0,1-.719,1.335l-2,1.349,2.285.766a1.632,1.632,0,0,1,1.049,1.1ZM14.989,82.066l-.639,1.253h5.432a1.621,1.621,0,0,1,.827-1.013l2.146-1.1-2.172-1.038a1.628,1.628,0,0,1-.908-1.21L19.3,76.58l-1.673,1.75a1.628,1.628,0,0,1-1.436.487l-2.372-.372,1.146,2.115A1.631,1.631,0,0,1,14.989,82.066Zm13.47-17.581-1.416-1.979a1.63,1.63,0,0,1,.307-2.221l3.436-2.748-2.364-.343a1.631,1.631,0,0,1-1.227-.891l-1.553-3.144L24.092,56.3a1.631,1.631,0,0,1-1.227.893l-3.464.5,2.506,2.443a1.63,1.63,0,0,1,.465,1.443l-.594,3.444,3.1-1.628a1.63,1.63,0,0,1,1.516,0ZM70.344,48.444l.645-5.48a1.63,1.63,0,0,1,2.225-1.322l5.1,2.048.639-5.469A1.629,1.629,0,0,1,81.176,36.9l6.345,2.527,2.245-1.337L78.936,23.193,30.588,61.864l5.777,8.062L38.3,68.771l.792-6.779a1.628,1.628,0,0,1,2.221-1.324l5.119,2.041.639-5.474a1.63,1.63,0,0,1,2.221-1.325l5.119,2.041.63-5.47a1.63,1.63,0,0,1,2.216-1.331l5.119,2.041.631-5.462A1.628,1.628,0,0,1,65.221,46.4Zm34.7,13.362-4.258,4.15,1,5.858a1.629,1.629,0,0,1-2.363,1.717L94.16,70.764,88.9,73.532a1.629,1.629,0,0,1-2.362-1.717l1.005-5.864L83.281,61.8a1.63,1.63,0,0,1,.9-2.778l5.885-.854L92.7,52.834a1.629,1.629,0,0,1,2.922,0l2.631,5.333,5.885.854a1.63,1.63,0,0,1,.9,2.778Zm-4.637-.029-3.466-.5a1.631,1.631,0,0,1-1.226-.891l-1.55-3.141-1.55,3.141a1.631,1.631,0,0,1-1.227.891l-3.465.5,2.508,2.444a1.631,1.631,0,0,1,.465,1.442L90.3,69.115l3.1-1.63a1.63,1.63,0,0,1,1.516,0l3.1,1.63-.592-3.451a1.631,1.631,0,0,1,.465-1.442ZM92.215,29.338,86.5,19.744a1.63,1.63,0,0,1,.565-2.234l6.395-3.816a1.628,1.628,0,0,1,2.234.564l5.724,9.6a1.629,1.629,0,0,1-.565,2.234l-6.4,3.816a1.629,1.629,0,0,1-.838.23,1.658,1.658,0,0,1-.4-.049,1.63,1.63,0,0,1-1-.747Zm-2.088-9.866,4.051,6.795,3.6-2.141-4.052-6.795Z" transform="translate(-4.75 -4.751)"/></svg>