<svg xmlns="http://www.w3.org/2000/svg" xmlns:xlink="http://www.w3.org/1999/xlink" width="107.924" height="107.923" viewBox="0 0 107.924 107.923"><defs><style>.a{fill:url(#a);}</style><linearGradient id="a" x1="0.977" y1="0.977" x2="0.023" y2="0.023" gradientUnits="objectBoundingBox"><stop offset="0" stop-color="#e89968"/><stop offset="1" stop-color="#f4d844"/></linearGradient></defs><path class="a" d="M94.705,37.612v5.313a1.594,1.594,0,1,1-3.188,0V37.612a1.594,1.594,0,0,1,3.188,0ZM79.223,43.3H38.24a1.594,1.594,0,0,0,0,3.188H79.223a1.594,1.594,0,1,0,0-3.188Zm0,9.2H38.24a1.594,1.594,0,0,0,0,3.188H79.223a1.594,1.594,0,1,0,0-3.188Zm0,9.2H38.24a1.594,1.594,0,0,0,0,3.188H79.223a1.594,1.594,0,1,0,0-3.188Zm0,9.2H38.24a1.594,1.594,0,1,0,0,3.188H79.223a1.594,1.594,0,1,0,0-3.188Zm0,9.2H38.24a1.594,1.594,0,0,0,0,3.188H79.223a1.594,1.594,0,0,0,0-3.188Zm0,9.2H38.24a1.594,1.594,0,1,0,0,3.188H79.223a1.594,1.594,0,1,0,0-3.188Zm1.594-54.568a1.594,1.594,0,0,1-1.594,1.594H38.24a1.6,1.6,0,0,1-1.594-1.594v-8.2a1.6,1.6,0,0,1,1.594-1.594H79.223a1.594,1.594,0,0,1,1.594,1.594Zm-3.188-6.6h-37.8v5.009h37.8ZM112.9,105.614a5.236,5.236,0,0,1-10.224,1.594H99.235v3.871a1.6,1.6,0,0,1-1.594,1.594H20.229a1.594,1.594,0,0,1-1.594-1.594v-3.871H15.2a5.237,5.237,0,1,1,0-3.188h3.438V100.15a1.594,1.594,0,0,1,1.594-1.594h2.527V18.866H20.229a1.594,1.594,0,0,1-1.594-1.594V13.4H15.2a5.237,5.237,0,1,1,0-3.188h3.438V6.344A1.594,1.594,0,0,1,20.23,4.75h9.813a1.594,1.594,0,1,1,0,3.188h-8.22v7.741H96.048V7.938H38.125a1.594,1.594,0,0,1,0-3.188H97.641a1.6,1.6,0,0,1,1.594,1.594v3.871h3.437a5.237,5.237,0,1,1,0,3.188H99.234v3.871a1.6,1.6,0,0,1-1.594,1.594H94.705V30.63a1.594,1.594,0,1,1-3.188,0V18.866H25.945v79.69H91.518V49.907a1.594,1.594,0,0,1,3.188,0V98.556h2.936a1.6,1.6,0,0,1,1.594,1.594v3.871h3.437a5.236,5.236,0,0,1,10.224,1.594Zm-7.286-93.806a2.049,2.049,0,1,0,2.049-2.049,2.049,2.049,0,0,0-2.049,2.049Zm-93.351,0a2.049,2.049,0,1,0-2.049,2.049A2.049,2.049,0,0,0,12.26,11.808Zm0,93.806a2.049,2.049,0,1,0-2.049,2.049A2.049,2.049,0,0,0,12.26,105.614Zm83.788,3.871v-7.741H21.823v7.741Zm13.661-3.871a2.049,2.049,0,1,0-2.049,2.049A2.049,2.049,0,0,0,109.709,105.614Z" transform="translate(-4.973 -4.75)"/></svg>