<svg xmlns="http://www.w3.org/2000/svg" width="57.997" height="60" viewBox="0 0 57.997 60"><defs><style>.a{fill:#d9ca9c;}</style></defs><g transform="translate(-8.545 -1)"><g transform="translate(8.545 1)"><g transform="translate(0)"><path class="a" d="M63.543,45h-14V40a2.983,2.983,0,0,0-1.062-2.271,20,20,0,1,0-21.875,0A2.983,2.983,0,0,0,25.544,40v5h-14a3,3,0,0,0-3,3v1a3,3,0,0,0,3,3h2v6a3,3,0,0,0,3,3h42a3,3,0,0,0,3-3V52h2a3,3,0,0,0,3-3V48A3,3,0,0,0,63.543,45Zm-44-24A18,18,0,1,1,45.762,37H29.325A17.869,17.869,0,0,1,19.545,21Zm28,19v5h-20V40a1,1,0,0,1,1-1h18A1,1,0,0,1,47.543,40Zm-21,7H48.422l-10.9,7.785L25.844,47Zm-15,3a1,1,0,0,1-1-1V48a1,1,0,0,1,1-1h10.7l4.5,3h-15.2Zm48,8a1,1,0,0,1-1,1h-42a1,1,0,0,1-1-1V52h14.2l7.248,4.832a1,1,0,0,0,1.136-.018L44.864,52H59.543v6Zm5-9a1,1,0,0,1-1,1H47.664l4.2-3H63.543a1,1,0,0,1,1,1Z" transform="translate(-8.545 -1)"/><path class="a" d="M248.478,37.156a13.911,13.911,0,0,1,5.443,1.1,1.015,1.015,0,0,0,.39.079,1,1,0,0,0,.39-1.921,15.93,15.93,0,0,0-6.223-1.258,1,1,0,0,0,0,2Z" transform="translate(-219.479 -31.153)"/><path class="a" d="M340.3,76.795a13.922,13.922,0,0,1,2.394,7.821,1,1,0,1,0,2,0,15.924,15.924,0,0,0-2.737-8.941A16.178,16.178,0,0,0,340,73.307a1,1,0,0,0-1.409,1.414A14.335,14.335,0,0,1,340.3,76.795Z" transform="translate(-299.697 -64.614)"/><path class="a" d="M178.406,102.037a6.618,6.618,0,0,0,6.4-6.8,5.5,5.5,0,0,0-5.324-5.639,4.6,4.6,0,0,0-4.459,4.711,3.877,3.877,0,0,0,3.768,3.969,1,1,0,0,0,0-2,1.879,1.879,0,0,1-1.768-1.969,2.6,2.6,0,0,1,2.459-2.711,3.5,3.5,0,0,1,3.329,3.639,4.619,4.619,0,0,1-4.4,4.8,6.024,6.024,0,0,1-5.76-6.248c0-4.444,3.339-8.06,7.444-8.06,5.269,0,9.556,4.632,9.556,10.325a1,1,0,1,0,2,0c0-6.8-5.184-12.324-11.555-12.324-5.207,0-9.444,4.513-9.444,10.06A8.022,8.022,0,0,0,178.406,102.037Z" transform="translate(-151.652 -74.035)"/></g></g></g></svg>