<svg xmlns="http://www.w3.org/2000/svg" width="60" height="60" viewBox="0 0 60 60"><defs><style>.a{fill:#d9ca9c;}</style></defs><path class="a" d="M3,60H31.68a1,1,0,0,0,0-2H3a1,1,0,0,1-1-1V9A1,1,0,0,1,3,8H28v9a3,3,0,0,0,3,3h9v2.35a1,1,0,0,0,2,0V19a1.093,1.093,0,0,0-.293-.707l-12-12A1.094,1.094,0,0,0,29,6H8V3A1,1,0,0,1,9,2H34.586L46,13.414V21a1,1,0,0,0,2,0V13a1,1,0,0,0-.293-.707l-12-12A1,1,0,0,0,35,0H9A3,3,0,0,0,6,3V6H3A3,3,0,0,0,0,9V57A3,3,0,0,0,3,60ZM38.586,18H31a1,1,0,0,1-1-1V9.414Z"/><path class="a" d="M58,38.556V35a11,11,0,0,0-22,0v3.556A3.987,3.987,0,0,0,34,42V56a4,4,0,0,0,4,4H56a4,4,0,0,0,4-4V42A3.987,3.987,0,0,0,58,38.556ZM38,35a9,9,0,0,1,18,0v3H54V35a7,7,0,0,0-14,0v3H38Zm4,3V35a5,5,0,0,1,10,0v3ZM58,56a2,2,0,0,1-2,2H38a2,2,0,0,1-2-2V42a2,2,0,0,1,2-2H56a2,2,0,0,1,2,2Z"/><path class="a" d="M47.746,43.068A4,4,0,0,0,44,49.645V52a3,3,0,0,0,6,0V49.646a4,4,0,0,0-2.254-6.578Zm.6,5.408A1,1,0,0,0,48,49.23V52a1,1,0,0,1-2,0V49.23a1,1,0,0,0-.343-.754A1.949,1.949,0,0,1,45,47a2,2,0,0,1,.718-1.537A1.975,1.975,0,0,1,47,45a2.18,2.18,0,0,1,.391.036,2.007,2.007,0,0,1,1.581,1.607,1.978,1.978,0,0,1-.629,1.833Z"/><path class="a" d="M8.285,30.693c.024.024.055.039.082.061a10.922,10.922,0,0,0,13.326-.044l.016-.012a11,11,0,1,0-13.424,0ZM10.038,29.5a5,5,0,0,1,2.822-4,4.83,4.83,0,0,0,4.28,0,5,5,0,0,1,2.821,4,8.963,8.963,0,0,1-9.923,0ZM15,24a3,3,0,1,1,3-3A3,3,0,0,1,15,24Zm0-11a8.985,8.985,0,0,1,6.7,14.992,7.034,7.034,0,0,0-2.863-3.822,5,5,0,1,0-7.671,0A7.034,7.034,0,0,0,8.3,27.992,8.985,8.985,0,0,1,15,13Z"/><path class="a" d="M28,36H5a1,1,0,0,0,0,2H28a1,1,0,0,0,0-2Z"/><path class="a" d="M28,41H5a1,1,0,0,0,0,2H28a1,1,0,0,0,0-2Z"/><path class="a" d="M29,47a1,1,0,0,0-1-1H5a1,1,0,0,0,0,2H28A1,1,0,0,0,29,47Z"/><path class="a" d="M5,51a1,1,0,0,0,0,2H16a1,1,0,0,0,0-2Z"/></svg>