<svg xmlns="http://www.w3.org/2000/svg" width="60" height="60.004" viewBox="0 0 60 60.004"><defs><style>.a{fill:#d9ca9c;}</style></defs><g transform="translate(0 0.004)"><g transform="translate(0 -1)"><path class="a" d="M57.6,5.119c-2.4-.156-8.379-.816-12-3.578a2.6,2.6,0,0,0-3.185,0c-3.623,2.762-9.6,3.422-12,3.578A2.575,2.575,0,0,0,28,7.678v8.074A25.018,25.018,0,0,0,30.674,27H5a5.006,5.006,0,0,0-5,5V56a5.006,5.006,0,0,0,5,5H47a5.006,5.006,0,0,0,5-5V34.115a25.235,25.235,0,0,0,8-18.363V7.678a2.575,2.575,0,0,0-2.4-2.559ZM50,56a3,3,0,0,1-3,3H5a3,3,0,0,1-3-3V32a3,3,0,0,1,3-3H31.8c.155.249.3.5.463.748a25.49,25.49,0,0,0,10.682,9.026,2.574,2.574,0,0,0,2.116,0A25.392,25.392,0,0,0,50,35.819Zm8-40.248a23.338,23.338,0,0,1-13.766,21.2.576.576,0,0,1-.469,0,23.479,23.479,0,0,1-9.844-8.319A23.037,23.037,0,0,1,30,15.752V7.678a.568.568,0,0,1,.534-.563c3.209-.208,9.175-1,13.085-3.984a.618.618,0,0,1,.761,0c3.911,2.982,9.877,3.776,13.086,3.984A.568.568,0,0,1,58,7.678Z"/><path class="a" d="M54.294,8.8a27.225,27.225,0,0,1-9.315-2.891,1.985,1.985,0,0,0-1.957,0A27.216,27.216,0,0,1,33.706,8.8,2,2,0,0,0,32,10.774v4.978a21.051,21.051,0,0,0,3.579,11.764,21.631,21.631,0,0,0,7.446,6.83,2.026,2.026,0,0,0,1.946,0A21.289,21.289,0,0,0,56,15.752V10.774A2,2,0,0,0,54.294,8.8ZM54,15.752A19.288,19.288,0,0,1,44,32.6h-.01a19.628,19.628,0,0,1-6.754-6.2A19.054,19.054,0,0,1,34,15.752l-.011-4.976A28.744,28.744,0,0,0,44,7.648a28.74,28.74,0,0,0,10,3.126Z"/><path class="a" d="M8,40h4a3,3,0,0,0,3-3V35a3,3,0,0,0-3-3H8a3,3,0,0,0-3,3v2A3,3,0,0,0,8,40ZM7,35a1,1,0,0,1,1-1h4a1,1,0,0,1,1,1v2a1,1,0,0,1-1,1H8a1,1,0,0,1-1-1Z"/><path class="a" d="M6,45h4a1,1,0,0,0,0-2H6a1,1,0,0,0,0,2Z"/><path class="a" d="M18,43H14a1,1,0,0,0,0,2h4a1,1,0,0,0,0-2Z"/><path class="a" d="M26,43H22a1,1,0,0,0,0,2h4a1,1,0,0,0,0-2Z"/><path class="a" d="M34,43H30a1,1,0,0,0,0,2h4a1,1,0,0,0,0-2Z"/><path class="a" d="M43,44a1,1,0,0,0-1-1H38a1,1,0,0,0,0,2h4A1,1,0,0,0,43,44Z"/><path class="a" d="M13,49H10a1,1,0,0,0,0,2h3a1,1,0,0,0,0-2Z"/><path class="a" d="M13,53H6a1,1,0,0,0,0,2h7a1,1,0,0,0,0-2Z"/><path class="a" d="M41,15v1a2,2,0,0,0-2,2v6a2,2,0,0,0,2,2h6a2,2,0,0,0,2-2V18a2,2,0,0,0-2-2V15a3,3,0,0,0-6,0Zm2,0a1,1,0,0,1,2,0v1H43Zm3,3h1v6H41V18Z"/><circle class="a" cx="1" cy="1" r="1" transform="translate(43 20)"/><path class="a" d="M45,54H40a1,1,0,0,0,0,2h6a1,1,0,0,0,1-1V50a1,1,0,0,0-2,0Z"/></g></g></svg>