<svg xmlns="http://www.w3.org/2000/svg" width="48.693" height="33.938" viewBox="0 0 48.693 33.938"><defs><style>.a{fill:#fff;stroke:#e6e7e8;stroke-miterlimit:10;}.b{fill:#7673c0;}.c{fill:#eb001b;}.d{fill:#00a1df;}.e{stroke:none;}.f{fill:none;}</style></defs><g class="a"><rect class="e" width="48.693" height="33.938" rx="3"/><rect class="f" x="0.5" y="0.5" width="47.693" height="32.938" rx="2.5"/></g><g transform="translate(9.835 8.361)"><rect class="b" width="7.878" height="14.303" transform="translate(10.625 1.948)"/><path class="c" d="M11.128,9.095a9.115,9.115,0,0,1,3.439-7.15,8.938,8.938,0,0,0-12.178.981,9.165,9.165,0,0,0,0,12.342,8.938,8.938,0,0,0,12.178.981,9.115,9.115,0,0,1-3.439-7.153Z" transform="translate(0 0.004)"/><path class="d" d="M.693.175.595.63H.528L.43.175V.7H.365V0H.457l.1.5L.668,0h.09V.7l-.065,0ZM.118.7V.12H0V0H.3V.12H.18V.7Z" transform="translate(28.094 14.381)"/><path class="d" d="M14.568,9.1A9.1,9.1,0,0,1,9.5,17.279,8.929,8.929,0,0,1,0,16.249,9.13,9.13,0,0,0,3.44,9.1,9.13,9.13,0,0,0,0,1.945,8.929,8.929,0,0,1,9.5.915,9.1,9.1,0,0,1,14.568,9.1Z" transform="translate(14.564 0)"/></g></svg>