<svg xmlns="http://www.w3.org/2000/svg" width="48.693" height="33.938" viewBox="0 0 48.693 33.938"><defs><style>.a,.c{fill:#fff;}.a{stroke:#e6e7e8;stroke-miterlimit:10;}.b{opacity:0;}.d{fill:#ff5f00;}.e{fill:#eb001b;}.f{fill:#f79e1b;}.g{stroke:none;}.h{fill:none;}</style></defs><g class="a"><rect class="g" width="48.693" height="33.938" rx="3"/><rect class="h" x="0.5" y="0.5" width="47.693" height="32.938" rx="2.5"/></g><g transform="translate(9.591 7.378)"><g class="b"><rect class="c" width="29.375" height="19.16"/></g><rect class="d" width="7.749" height="12.482" transform="translate(10.814 3.338)"/><path class="e" d="M9.948,7.936A7.885,7.885,0,0,1,13.022,1.7a8.13,8.13,0,0,0-10.886.856,7.857,7.857,0,0,0,0,10.77,8.13,8.13,0,0,0,10.886.856A7.885,7.885,0,0,1,9.948,7.936Z" transform="translate(1.665 1.644)"/><path class="f" d="M.677.626V.152L.58.559H.514L.418.152V.626H.354V0H.443l.1.447L.649,0H.738V.626Zm-.561,0V.108H0V0H.293V.108H.17V.626Z" transform="translate(26.786 14.19)"/><path class="f" d="M13.023,7.94a7.928,7.928,0,0,1-4.531,7.139A8.141,8.141,0,0,1,0,14.179,7.9,7.9,0,0,0,3.075,7.938,7.9,7.9,0,0,0,0,1.7,8.141,8.141,0,0,1,8.492.8a7.928,7.928,0,0,1,4.531,7.139Z" transform="translate(14.686 1.641)"/></g></svg>